<svg width="24" height="24" viewBox="0 0 24 24" fill="none" xmlns="http://www.w3.org/2000/svg">
<path fill-rule="evenodd" clip-rule="evenodd" d="M6 4.5C4.78922 4.49983 3.61222 4.8992 2.65156 5.63617C1.6909 6.37313 1.00026 7.4065 0.686781 8.57599C0.373298 9.74549 0.454485 10.9857 0.917749 12.1044C1.38101 13.223 2.20046 14.1576 3.249 14.763C3.59338 14.9622 4.00278 15.0164 4.38714 14.9137C4.57745 14.8629 4.75589 14.775 4.91226 14.6552C5.06863 14.5354 5.19987 14.386 5.2985 14.2155C5.39712 14.045 5.46119 13.8567 5.48705 13.6614C5.51291 13.4661 5.50005 13.2677 5.44921 13.0774C5.39837 12.887 5.31054 12.7086 5.19074 12.5522C5.07094 12.3959 4.92152 12.2646 4.751 12.166C4.274 11.8911 3.90109 11.4664 3.69015 10.9579C3.47921 10.4493 3.44204 9.88538 3.5844 9.35356C3.72676 8.82173 4.04069 8.35177 4.47747 8.01662C4.91425 7.68146 5.44945 7.49986 6 7.5H12C12.6088 7.49939 13.197 7.72098 13.654 8.12318C14.1111 8.52538 14.4057 9.08055 14.4825 9.68452C14.5593 10.2885 14.4131 10.8997 14.0713 11.4036C13.7295 11.9074 13.2156 12.2692 12.626 12.421C12.2406 12.5202 11.9105 12.7684 11.7081 13.111C11.5058 13.4537 11.4478 13.8626 11.547 14.248C11.6462 14.6334 11.8944 14.9635 12.237 15.1659C12.5797 15.3682 12.9886 15.4262 13.374 15.327C14.6685 14.9905 15.796 14.194 16.5458 13.0864C17.2956 11.9789 17.6163 10.6362 17.4479 9.30931C17.2795 7.98247 16.6336 6.7624 15.6309 5.87725C14.6282 4.99211 13.3375 4.5025 12 4.5H6ZM11.374 11.579C11.7594 11.4798 12.0895 11.2316 12.2919 10.889C12.4942 10.5463 12.5522 10.1374 12.453 9.752C12.3538 9.36664 12.1056 9.03647 11.763 8.83412C11.4203 8.63176 11.0114 8.57381 10.626 8.673C9.33154 9.00951 8.20398 9.80601 7.45418 10.9136C6.70438 12.0211 6.38369 13.3638 6.55207 14.6907C6.72045 16.0175 7.36638 17.2376 8.36906 18.1227C9.37175 19.0079 10.6625 19.4975 12 19.5H18C19.2108 19.5002 20.3878 19.1008 21.3484 18.3638C22.3091 17.6269 22.9997 16.5935 23.3132 15.424C23.6267 14.2545 23.5455 13.0143 23.0822 11.8956C22.619 10.777 21.7995 9.84244 20.751 9.237C20.4066 9.03782 19.9972 8.98361 19.6129 9.08628C19.2285 9.18896 18.9007 9.44012 18.7015 9.7845C18.5023 10.1289 18.4481 10.5383 18.5508 10.9226C18.6535 11.307 18.9046 11.6348 19.249 11.834C19.726 12.1089 20.0989 12.5336 20.3098 13.0421C20.5208 13.5507 20.558 14.1146 20.4156 14.6464C20.2732 15.1783 19.9593 15.6482 19.5225 15.9834C19.0857 16.3185 18.5505 16.5001 18 16.5H12C11.3912 16.5006 10.803 16.279 10.346 15.8768C9.8889 15.4746 9.59431 14.9194 9.51748 14.3155C9.44065 13.7115 9.58686 13.1003 9.92867 12.5964C10.2705 12.0926 10.7844 11.7308 11.374 11.579Z" fill="#8E5F43"/>
</svg>
